HIERARCHY
ROOT Hips
{
  OFFSET 54.5904 96.4007 1.38068
  CHANNELS 6 Xposition Yposition Zposition Zrotation Xrotation Yrotation
  JOINT spine
  {
    OFFSET 0 8.13249 0.467659
    CHANNELS 3 Zrotation Xrotation Yrotation
    JOINT spine1
    {
      OFFSET 0 10.3498 0
      CHANNELS 3 Zrotation Xrotation Yrotation
      JOINT spine2
      {
        OFFSET 0 9.91699 0
        CHANNELS 3 Zrotation Xrotation Yrotation
        JOINT Neck
        {
          OFFSET 0 25.461 1.2139
          CHANNELS 3 Zrotation Xrotation Yrotation
          JOINT Head
          {
            OFFSET 0 7.69245 0
            CHANNELS 3 Zrotation Xrotation Yrotation
            End Site
            {
              OFFSET 0 18.62 -6.14063
            }
          }
        }
        JOINT RightShoulder
        {
          OFFSET -4.17575 10.7096 -0.581445
          CHANNELS 3 Zrotation Xrotation Yrotation
          JOINT RightArm
          {
            OFFSET 0 14.0466 0
            CHANNELS 3 Zrotation Xrotation Yrotation
            JOINT RightArmRoll
            {
              OFFSET 0 7.09099 0
              CHANNELS 3 Zrotation Xrotation Yrotation
              JOINT RightForeArm
              {
                OFFSET 0 20.6535 0
                CHANNELS 3 Zrotation Xrotation Yrotation
                JOINT RightForeArmRoll
                {
                  OFFSET 0 7.95718 0
                  CHANNELS 3 Zrotation Xrotation Yrotation
                  JOINT RightHand
                  {
                    OFFSET 0 15.9683 0
                    CHANNELS 3 Zrotation Xrotation Yrotation
                    End Site
                    {
                      OFFSET 0 0 0
                    }
                  }
                }
              }
            }
          }
        }
        JOINT LeftShoulder
        {
          OFFSET 4.17575 10.7096 -0.581445
          CHANNELS 3 Zrotation Xrotation Yrotation
          JOINT LeftArm
          {
            OFFSET 0 14.0466 0
            CHANNELS 3 Zrotation Xrotation Yrotation
            JOINT LeftArmRoll
            {
              OFFSET 0 7.09098 0
              CHANNELS 3 Zrotation Xrotation Yrotation
              JOINT LeftForeArm
              {
                OFFSET 0 20.6535 0
                CHANNELS 3 Zrotation Xrotation Yrotation
                JOINT LeftForeArmRoll
                {
                  OFFSET 0 7.95718 0
                  CHANNELS 3 Zrotation Xrotation Yrotation
                  JOINT LeftHand
                  {
                    OFFSET 0 15.9683 0
                    CHANNELS 3 Zrotation Xrotation Yrotation
                    End Site
                    {
                      OFFSET 0 0 0
                    }
                  }
                }
              }
            }
          }
        }
      }
    }
  }
  JOINT RightUpLeg
  {
    OFFSET -7.20834 -1.32182 -1.10884
    CHANNELS 3 Zrotation Xrotation Yrotation
    JOINT RightUpLegRoll
    {
      OFFSET 0 18.7238 0
      CHANNELS 3 Zrotation Xrotation Yrotation
      JOINT RightLeg
      {
        OFFSET 0 -23.1866 0
        CHANNELS 3 Zrotation Xrotation Yrotation
        JOINT RightLegRoll
        {
          OFFSET 0 23.2624 0
          CHANNELS 3 Zrotation Xrotation Yrotation
          JOINT RightFoot
          {
            OFFSET 0 19.3621 0
            CHANNELS 3 Zrotation Xrotation Yrotation
            JOINT RightToeBase
            {
              OFFSET 0 16.1857 0
              CHANNELS 3 Zrotation Xrotation Yrotation
              End Site
              {
                OFFSET 0.00686052 7.83863 -0.903522
              }
            }
          }
        }
      }
    }
  }
  JOINT LeftUpLeg
  {
    OFFSET 7.20834 -1.32182 -1.10884
    CHANNELS 3 Zrotation Xrotation Yrotation
    JOINT LeftUpLegRoll
    {
      OFFSET 0 18.7239 0
      CHANNELS 3 Zrotation Xrotation Yrotation
      JOINT LeftLeg
      {
        OFFSET 0 23.1865 0
        CHANNELS 3 Zrotation Xrotation Yrotation
        JOINT LeftLegRoll
        {
          OFFSET 0 23.4775 0
          CHANNELS 3 Zrotation Xrotation Yrotation
          JOINT LeftFoot
          {
            OFFSET 0 19.147 0
            CHANNELS 3 Zrotation Xrotation Yrotation
            JOINT LeftToeBase
            {
              OFFSET 0 16.1857 0
              CHANNELS 3 Zrotation Xrotation Yrotation
              End Site
              {
                OFFSET -0.0307459 7.83862 -0.903522
              }
            }
          }
        }
      }
    }
  }
}
MOTION
Frames: 8
Frame Time: 0.00208333
55.8452 86.686 12.6356 -2.10687 -4.13165 3.74865 0.635183 -0.229176 -0.0288708 1.2727 3.5434 -0.137715 1.27612 5.18824 -0.159235 8.35102 2.32528 -6.65703 -11.943 3.67698 -6.10422 23.6503 -24.4646 -23.5234 -3.5434 39.2593 109.98 -1.9643e-007 -3.4274e-006 -5.16824e-006 -6.99653 60.8737 11.1051 -9.93294e-006 3.35705e-006 -3.00109 8.0301 -4.9514 0.697662 -20.6471 -19.2419 17.7264 7.90282 31.5396 -118.782 -3.01874e-006 -1.92988e-006 7.29468e-006 10.8203 39.9957 -8.58354 4.97182e-006 1.84412e-007 3 -8.02935 -4.95143 -0.697668 167.003 17.7976 3.2326 -180 7.01496e-015 178.722 -166.44 50.2134 172.755 -2.69804e-006 2.18367e-006 4.62426 -61.5787 83.5246 67.1093 8.18787 26.7062 -1.83423 -164.11 17.0423 -0.773066 4.5067e-006 -1.99009e-005 -1.51775 19.4775 -50.141 9.72629 5.07824e-006 7.47503e-007 -5.55994 59.199 83.5346 -65.3795 -8.18667 27.2978 1.26286 
55.8519 86.9102 12.6189 -2.10942 -4.13356 3.77422 0.637215 -0.244339 -0.0267523 1.27672 3.51309 -0.133572 1.28008 5.15793 -0.155153 8.31637 2.47358 -6.68748 -11.8852 3.61855 -6.13156 23.7715 -24.4015 -23.4103 -2.97915 39.4106 109.272 -1.9643e-007 -3.4274e-006 -5.16824e-006 -6.98998 60.6604 10.9849 -9.93294e-006 3.35705e-006 -3.00108 8.0301 -4.9514 0.697662 -20.8814 -19.1412 17.5495 7.55947 31.6959 -118.004 -3.01874e-006 -1.92988e-006 7.29468e-006 10.8461 39.6885 -8.44539 4.97182e-006 1.84412e-007 3 -8.02935 -4.95143 -0.697668 166.97 17.5221 3.30941 -180 7.01498e-015 178.73 -166.824 49.564 173.02 -2.69804e-006 2.18366e-006 4.48314 -58.0243 83.2519 63.3827 8.18816 26.7779 -1.75288 -164.097 16.7896 -0.794337 4.5067e-006 -1.99009e-005 -1.50893 19.1197 -49.4807 9.44553 5.07824e-006 7.47504e-007 -5.4042 55.86 83.2546 -61.8567 -8.1853 27.3635 1.19113 
55.8846 87.2075 12.4973 -2.11088 -4.13533 3.79861 0.638488 -0.259385 -0.0247943 1.27922 3.48302 -0.129658 1.28252 5.12785 -0.151276 8.28981 2.62444 -6.71825 -11.8317 3.55581 -6.15816 23.9039 -24.3377 -23.2939 -2.41229 39.5603 108.566 -1.9643e-007 -3.4274e-006 -5.16824e-006 -6.98055 60.4498 10.8628 -9.93294e-006 3.35705e-006 -3.00107 8.0301 -4.9514 0.697662 -21.111 -19.0393 17.3734 7.20041 31.8571 -117.214 -3.01874e-006 -1.92988e-006 7.29468e-006 10.8654 39.3839 -8.30501 4.97182e-006 1.84412e-007 3 -8.02935 -4.95143 -0.697668 166.938 17.2419 3.38406 -180 7.015e-015 178.737 -167.206 48.8947 173.28 -2.69804e-006 2.18367e-006 4.33808 -54.5707 82.9392 59.7538 8.18818 26.8564 -1.66387 -164.081 16.5293 -0.820318 4.5067e-006 -1.99009e-005 -1.49985 18.7524 -48.7987 9.1638 5.07824e-006 7.47509e-007 -5.2424 52.6224 82.9373 -58.4304 -8.18358 27.4355 1.1126 
55.9265 87.455 12.5335 -2.1111 -4.13678 3.82168 0.638844 -0.274222 -0.023027 1.27988 3.45336 -0.126015 1.28313 5.0982 -0.147638 8.27386 2.7761 -6.74932 -11.7843 3.48959 -6.18371 24.0497 -24.2737 -23.1741 -1.84623 39.709 107.866 -1.9643e-007 -3.4274e-006 -5.16824e-006 -6.96782 60.2432 10.7389 -9.93294e-006 3.35705e-006 -3.00106 8.0301 -4.9514 0.697662 -21.333 -18.9368 17.1994 6.82443 32.0253 -116.413 -3.01874e-006 -1.92988e-006 7.29468e-006 10.8772 39.0836 -8.16279 4.97182e-006 1.84412e-007 3 -8.02935 -4.95143 -0.697668 166.908 16.9579 3.45581 -180 7.01502e-015 178.743 -167.585 48.2056 173.532 -2.69805e-006 2.18368e-006 4.18914 -51.237 82.5846 56.2421 8.18786 26.9423 -1.56642 -164.06 16.2619 -0.851494 4.5067e-006 -1.99009e-005 -1.49051 18.375 -48.0951 8.88143 5.07824e-006 7.47521e-007 -5.07435 49.5021 82.5809 -55.1163 -8.18146 27.5143 1.02665 
55.881 87.7285 12.5869 -2.10992 -4.13772 3.84328 0.638127 -0.288759 -0.0214805 1.2784 3.42431 -0.122685 1.28159 5.06914 -0.144278 8.27106 2.92678 -6.78067 -11.7449 3.42069 -6.20791 24.2115 -24.2101 -23.0511 -1.28436 39.8575 107.174 -1.9643e-007 -3.4274e-006 -5.16824e-006 -6.95139 60.042 10.6131 -9.93294e-006 3.35705e-006 -3.00104 8.0301 -4.9514 0.697662 -21.5447 -18.8341 17.0287 6.43023 32.2029 -115.603 -3.01874e-006 -1.92988e-006 7.29468e-006 10.8807 38.789 -8.01906 4.97182e-006 1.84412e-007 3 -8.02935 -4.95143 -0.697668 166.88 16.671 3.52393 -180 7.01504e-015 178.749 -167.96 47.497 173.777 -2.69805e-006 2.18371e-006 4.03639 -48.0392 82.1862 52.8637 8.1871 27.0363 -1.45972 -164.034 15.9881 -0.888346 4.5067e-006 -1.99009e-005 -1.48092 17.9868 -47.3699 8.59868 5.07824e-006 7.4754e-007 -4.89985 46.5118 82.1839 -51.9271 -8.17883 27.6005 0.932675 
55.9084 87.9815 12.5668 -2.10722 -4.13796 3.86329 0.636179 -0.302905 -0.020185 1.27445 3.39603 -0.119709 1.2776 5.04087 -0.141231 8.28393 3.0747 -6.81229 -11.7154 3.34994 -6.23046 24.3917 -24.1476 -22.9249 -0.730091 40.0069 106.496 -1.9643e-007 -3.4274e-006 -5.16824e-006 -6.9308 59.8475 10.4854 -9.93294e-006 3.35705e-006 -3.00103 8.0301 -4.9514 0.697662 -21.7432 -18.7317 16.8626 6.01634 32.392 -114.786 -3.01874e-006 -1.92988e-006 7.29468e-006 10.8747 38.5016 -7.87416 4.97182e-006 1.84412e-007 3 -8.02935 -4.95143 -0.697668 166.854 16.382 3.58768 -180 7.01505e-015 178.755 -168.33 46.7692 174.013 -2.69805e-006 2.18376e-006 3.87988 -44.9891 81.7424 49.6307 8.18579 27.1392 -1.34296 -164.004 15.7083 -0.931353 4.5067e-006 -1.99009e-005 -1.4711 17.587 -46.6233 8.31583 5.07824e-006 7.47567e-007 -4.71869 43.6611 81.7446 -48.8724 -8.17561 27.6946 0.830041 
55.9114 88.365 12.5735 -2.10347 -4.13842 3.88347 0.633119 -0.316841 -0.0191287 1.26828 3.36818 -0.117074 1.27137 5.01302 -0.138488 8.31007 3.22897 -6.84526 -11.6898 3.26794 -6.25266 24.5913 -24.0844 -22.7931 -0.175761 40.1553 105.815 -1.9643e-007 -3.4274e-006 -5.16824e-006 -6.90574 59.6643 10.3556 -9.93294e-006 3.35705e-006 -3.00102 8.0301 -4.9514 0.697662 -21.9311 -18.6257 16.6952 5.57518 32.5905 -113.938 -3.01874e-006 -1.92988e-006 7.29468e-006 10.8599 38.2066 -7.72331 4.97182e-006 1.84412e-007 3 -8.02935 -4.95143 -0.697668 166.83 16.0828 3.64929 -180 7.01507e-015 178.76 -168.705 46.0056 174.246 -2.69805e-006 2.18382e-006 3.7135 -41.9959 81.2327 46.445 8.1835 27.2649 -1.20015 -163.965 15.4173 -0.98325 4.5067e-006 -1.99009e-005 -1.46064 17.1672 -45.8412 8.02738 5.07824e-006 7.47603e-007 -4.52379 40.8636 81.243 -45.8575 -8.1711 27.811 0.702903 
55.9241 88.6051 12.575 -2.0992 -4.13994 3.9053 0.629216 -0.330807 -0.0182682 1.26042 3.34027 -0.114724 1.26347 4.98511 -0.136002 8.34488 3.39829 -6.88038 -11.6618 3.16685 -6.27581 24.8083 -24.0184 -22.6538 0.388333 40.3 105.118 -1.9643e-007 -3.4274e-006 -5.16824e-006 -6.87641 59.4941 10.2233 -9.93294e-006 3.35705e-006 -3.00101 8.0301 -4.9514 0.697662 -22.1135 -18.5125 16.5207 5.10151 32.7913 -113.04 -3.01874e-006 -1.92988e-006 7.29468e-006 10.8385 37.8917 -7.56284 4.97182e-006 1.84412e-007 3 -8.02935 -4.95143 -0.697668 166.805 15.7663 3.71122 -180 7.01508e-015 178.764 -169.093 45.194 174.481 -2.69805e-006 2.1839e-006 3.53272 -39.0537 80.6402 43.2955 8.17958 27.4228 -1.0203 -163.916 15.1105 -1.04544 4.5067e-006 -1.99009e-005 -1.44925 16.7232 -45.0134 7.73017 5.07824e-006 7.47645e-007 -4.31016 38.1123 80.6624 -42.8695 -8.16449 27.9595 0.540167 
